<?xml version="1.0" standalone="no"?><!DOCTYPE svg PUBLIC "-//W3C//DTD SVG 1.1//EN" "http://www.w3.org/Graphics/SVG/1.1/DTD/svg11.dtd"><svg t="1565603980738" class="icon" viewBox="0 0 1024 1024" version="1.1" xmlns="http://www.w3.org/2000/svg" p-id="3925" xmlns:xlink="http://www.w3.org/1999/xlink" width="200" height="200"><defs><style type="text/css"></style></defs><path d="M155.2 796.8V304H60.8v-76.8h270.4v76.8h-94.4v492.8H155.2z m293.6-492.8v177.6h46.4c14.4 0 25.8672-2 34.4-6 8.5328-4 15.2-9.7328 20-17.2 4.2672-7.4672 7.2-16.6672 8.8-27.6s2.4-23.6 2.4-38-0.8-27.0672-2.4-38c-1.6-10.9328-4.8-20.4-9.6-28.4-10.1328-14.9328-29.3328-22.4-57.6-22.4h-42.4z m-81.6 492.8V227.2h131.2c96 0 144 55.7328 144 167.2 0 33.6-5.2 62.1328-15.6 85.6-10.4 23.4672-28.6672 42.4-54.8 56.8l88 260h-86.4L497.6 553.6h-48.8v243.2h-81.6z m402.4 0V556L657.6 227.2h86.4l65.6 226.4h1.6L876.8 227.2h86.4l-112 328.8V796.8h-81.6z" p-id="3926"></path></svg>